<mxfile host="app.diagrams.net" modified="2023-12-06T04:27:58.161Z" agent="Mozilla/5.0 (iPad; CPU OS 17_1 like Mac OS X) AppleWebKit/605.1.15 (KHTML, like Gecko) CriOS/119.0.6045.169 Mobile/15E148 Safari/604.1" version="22.1.5" etag="QuMcho2cDMIOahS9fg1R" type="github">
  <diagram name="Lapa-1" id="FGH9OcX8Ayuf89oQrZPA">
    <mxGraphModel>
      <root>
        <mxCell id="0" />
        <mxCell id="1" parent="0" />
      </root>
    </mxGraphModel>
  </diagram>
</mxfile>
